<svg width="135" height="49" viewBox="0 0 135 49" fill="none" xmlns="http://www.w3.org/2000/svg">
<path d="M112.087 0.779968V29.8682H75.645V5.71697L79.5138 9.9772V27.6737L108.191 27.7105V8.33343L93.8607 23.8269L75.8354 4.04204V0.825276L107.238 0.779968L105.472 2.95185L80.2395 2.9292L93.8607 17.9101L109.03 0.779968H112.087Z" fill="white"/>
<path d="M119.81 21.073C120.391 23.9089 122.227 25.152 125.176 25.152C128.117 25.152 129.376 23.865 129.376 21.7979C129.376 19.5 128.147 18.5019 123.789 17.3791C116.854 15.5753 115.139 12.7805 115.139 8.96767C115.139 4.04624 118.461 0.703461 124.494 0.703461C131.261 0.703461 133.955 4.73433 134.321 8.86431H128.769C128.503 7.12709 127.636 5.23978 124.351 5.23978C122.115 5.23978 120.764 6.26343 120.764 8.26825C120.764 10.232 121.847 11.0277 125.963 12.0867C133.375 14.0222 135 17.0775 135 21.0589C135 26.2153 131.48 29.7521 124.743 29.7521C118.274 29.7521 114.868 26.2238 114.257 21.0758H119.81V21.073Z" fill="white"/>
<path d="M50.3452 0.815338H60.7186C68.3386 0.815338 73.3189 6.37531 73.3189 14.9467C73.3189 23.4021 68.4855 29.8059 60.4809 29.8059H50.3452V0.815338ZM56.0027 24.7415H60.2446C65.2607 24.7415 67.4774 20.6072 67.4774 14.9623C67.4774 10.2264 65.4012 5.87977 60.2778 5.87977H56.0027V24.7415Z" fill="white"/>
<path d="M57.6735 47.1979H50.3403V36.9488H57.6735V38.9986H52.7186V40.9752H56.6164V43.0251H52.7186V45.1481H57.6735V47.1979ZM64.0786 36.9488H66.7212L63.7482 42.0734L66.7872 47.1979H64.1447L62.2948 43.9768L60.445 47.1979H57.8025L60.8414 42.0734L57.8685 36.9488H60.4979L62.2948 40.1699L64.0786 36.9488ZM67.45 36.9488H72.9993C73.9242 36.9488 74.5937 37.183 75.0076 37.6516C75.4304 38.1103 75.6419 38.8522 75.6419 39.8771V41.3413C75.6419 42.3662 75.4304 43.1129 75.0076 43.5814C74.5937 44.0402 73.9242 44.2696 72.9993 44.2696H69.8282V47.1979H67.45V36.9488ZM73.2636 39.8771C73.2636 39.2914 72.9993 38.9986 72.4708 38.9986H69.8282V42.2198H72.4708C72.9993 42.2198 73.2636 41.9269 73.2636 41.3413V39.8771ZM76.8305 36.9488H82.3799C83.3048 36.9488 83.9743 37.183 84.3882 37.6516C84.811 38.1103 85.0225 38.8522 85.0225 39.8771V41.1949C85.0225 42.005 84.8992 42.6346 84.6525 43.0836C84.4147 43.5326 84.0315 43.8303 83.5029 43.9768L85.1546 47.1979H82.578L81.0586 44.1232H79.2088V47.1979H76.8305V36.9488ZM82.6441 39.8771C82.6441 39.2914 82.3799 38.9986 81.8514 38.9986H79.2088V42.0734H81.8514C82.3799 42.0734 82.6441 41.7805 82.6441 41.1949V39.8771ZM93.6733 47.1979H86.3401V36.9488H93.6733V38.9986H88.7184V40.9752H92.6161V43.0251H88.7184V45.1481H93.6733V47.1979ZM94.4497 45.0749C96.8632 45.2213 98.4972 45.2945 99.3516 45.2945C99.5543 45.2945 99.7128 45.2311 99.8273 45.1042C99.9506 44.9675 100.012 44.7869 100.012 44.5624V43.2447H96.9734C96.0485 43.2447 95.3746 43.0153 94.9519 42.5565C94.5378 42.088 94.3308 41.3413 94.3308 40.3164V39.8771C94.3308 38.8522 94.5378 38.1103 94.9519 37.6516C95.3746 37.183 96.0485 36.9488 96.9734 36.9488H101.611V38.9986H97.5018C96.9734 38.9986 96.7092 39.2914 96.7092 39.8771V40.1699C96.7092 40.7556 96.9734 41.0484 97.5018 41.0484H99.8802C100.743 41.0484 101.378 41.2729 101.783 41.722C102.188 42.171 102.391 42.8738 102.391 43.8304V44.5624C102.391 45.519 102.188 46.2218 101.783 46.6708C101.378 47.1198 100.743 47.3444 99.8802 47.3444C99.431 47.3444 98.9553 47.3346 98.4532 47.3151L97.2376 47.2565C96.3391 47.2077 95.4099 47.1394 94.4497 47.0515V45.0749ZM103.301 45.0749C105.715 45.2213 107.349 45.2945 108.203 45.2945C108.406 45.2945 108.564 45.2311 108.679 45.1042C108.802 44.9675 108.864 44.7869 108.864 44.5624V43.2447H105.825C104.9 43.2447 104.226 43.0153 103.803 42.5565C103.389 42.088 103.182 41.3413 103.182 40.3164V39.8771C103.182 38.8522 103.389 38.1103 103.803 37.6516C104.226 37.183 104.9 36.9488 105.825 36.9488H110.463V38.9986H106.353C105.825 38.9986 105.561 39.2914 105.561 39.8771V40.1699C105.561 40.7556 105.825 41.0484 106.353 41.0484H108.732C109.595 41.0484 110.229 41.2729 110.634 41.722C111.04 42.171 111.242 42.8738 111.242 43.8304V44.5624C111.242 45.519 111.04 46.2218 110.634 46.6708C110.229 47.1198 109.595 47.3444 108.732 47.3444C108.283 47.3444 107.807 47.3346 107.305 47.3151L106.089 47.2565C105.191 47.2077 104.261 47.1394 103.301 47.0515V45.0749Z" fill="white"/>
<path d="M38.8985 48.6479H4.29934C1.92544 48.6479 0 46.5156 0 43.8836V5.5429C0 2.91228 1.92416 0.778625 4.29934 0.778625H38.8985C41.2724 0.778625 43.1979 2.91087 43.1979 5.5429V43.8836C43.1979 46.5142 41.2724 48.6479 38.8985 48.6479Z" fill="white"/>
<path d="M34.3897 23.4333C34.3897 25.7397 33.0583 27.7006 31.2006 28.4241C30.9157 30.688 29.1602 32.428 27.0418 32.428C25.3067 32.428 23.8182 31.2642 23.1756 29.6035C22.5674 29.8073 21.926 29.9178 21.2591 29.9178C20.6535 29.9178 20.0657 29.8272 19.5099 29.6559C18.8558 31.2897 17.3814 32.4295 15.6655 32.4295C13.5343 32.4295 11.775 30.6738 11.499 28.3958C9.67831 27.651 8.38403 25.7128 8.38403 23.4347C8.38403 21.1764 9.6617 19.2481 11.4632 18.4906C11.0326 17.76 10.7835 16.8893 10.7835 15.9549C10.7835 13.3809 12.6655 11.2939 14.987 11.2939C15.8507 11.2939 16.6505 11.5799 17.32 12.0769C17.6893 9.92201 19.3975 8.29663 21.4469 8.29663C23.4746 8.29663 25.1649 9.88378 25.561 12.0004C26.2062 11.553 26.969 11.2939 27.788 11.2939C30.1082 11.2939 31.9915 13.3795 31.9915 15.9549C31.9915 16.8907 31.7423 17.76 31.3117 18.4906C33.1133 19.2481 34.3897 21.1764 34.3897 23.4333Z" fill="#006A19"/>
<path d="M24.1387 29.3019C24.1387 29.3019 21.2091 33.0369 24.5361 39.6049C24.8249 40.1741 25.2618 40.647 25.8061 40.9004C26.0233 41.0023 26.2648 41.0745 26.5178 41.0816C27.4275 41.1071 29.0118 41.9594 29.6187 42.9165H12.9004C12.9004 42.9165 13.934 40.9429 16.2568 40.6399C16.4932 40.6087 16.727 40.5507 16.9455 40.4445C17.6495 40.1019 18.9118 39.1179 19.184 36.4179C19.2159 36.1021 19.2606 35.7864 19.313 35.4735C19.5161 34.2375 19.8445 30.9981 18.0532 29.4973C18.0532 29.4973 19.7525 28.9154 20.8487 29.6077C20.9931 29.6997 21.1643 29.721 21.324 29.6643C21.8428 29.4817 23.0438 29.1249 24.1387 29.3019Z" fill="#D36300"/>
</svg>
